<?xml version="1.0" encoding="UTF-8"?>
<svg version="1.1" xmlns="http://www.w3.org/2000/svg" width="400" height="456">
<path d="M0 0 C7.3084705 -0.35774312 14.61465703 -0.60122845 21.92993164 -0.76904297 C24.41256023 -0.83904887 26.89461985 -0.93429712 29.37524414 -1.05615234 C51.12375123 -2.09700187 51.12375123 -2.09700187 57.47607422 3.02929688 C60.35504193 5.87645057 62.72142091 8.96322067 64.9180603 12.35803223 C66.33444005 14.5075512 68.0018434 16.36578708 69.75 18.25 C70.27078125 18.85328125 70.7915625 19.4565625 71.328125 20.078125 C73.35758073 22.41105074 75.427647 24.70511245 77.5 27 C80.1765894 29.97047168 82.85268342 32.94088471 85.5 35.9375 C86.30081749 36.82612984 86.30081749 36.82612984 87.11781311 37.73271179 C89 40 89 40 90.79515076 42.76521301 C93.76586441 47.08889725 96.07805766 50.42551415 101.23635864 51.96737671 C105.0733482 52.26994549 108.8227487 52.24117948 112.66015625 52.07421875 C114.05970601 52.05366194 115.45933579 52.03802292 116.85899353 52.02705383 C120.51574293 51.98535814 124.16756532 51.87761829 127.8223877 51.75531006 C131.56255431 51.64209211 135.30352998 51.59240022 139.04492188 51.53710938 C146.36551048 51.41968276 153.68206105 51.23236342 161 51 C160.18845459 50.19369141 159.37690918 49.38738281 158.54077148 48.55664062 C155.49844491 45.5325667 152.45955409 42.50505938 149.42163086 39.4765625 C148.11232826 38.17225416 146.80212531 36.86884892 145.4909668 35.56640625 C132.76745472 22.92529406 132.76745472 22.92529406 127.51928711 16.73974609 C124.70376924 13.51567727 121.61978504 10.55508059 118.5625 7.5625 C117.31156569 6.3369139 116.06273747 5.10917305 114.81640625 3.87890625 C114.27443604 3.3485376 113.73246582 2.81816895 113.17407227 2.27172852 C112 1 112 1 112 0 C119.27693808 -0.20328799 126.55314126 -0.34312369 133.83227539 -0.43945312 C136.30683758 -0.4796188 138.78121069 -0.53416419 141.25512695 -0.60351562 C144.81769471 -0.70086528 148.37774856 -0.74599747 151.94140625 -0.78125 C153.59336754 -0.84318542 153.59336754 -0.84318542 155.27870178 -0.90637207 C162.76197912 -0.91071761 162.76197912 -0.91071761 166.00656128 1.47607422 C167.85228927 3.55392249 169.41628474 5.71674486 171 8 C172.31781618 9.63008475 173.65066681 11.24809756 174.99609375 12.85546875 C176.0616021 14.1455761 176.0616021 14.1455761 177.14863586 15.46174622 C181.31105969 20.41867762 185.60977447 25.24498128 190 30 C190.6911408 30.74940542 190.6911408 30.74940542 191.39624405 31.51395035 C202.72281888 43.6798516 213.15249948 53.12559118 230.57473755 53.98635864 C240.81017674 54.04789435 250.95321868 52.88752798 261 51 C260.38612427 50.39056549 259.77224854 49.78113098 259.13977051 49.15322876 C253.36606723 43.41953715 247.59714075 37.68109198 241.83358002 31.93720436 C238.87003993 28.98411827 235.90466118 26.03292812 232.93505859 23.0859375 C230.07131947 20.24386922 227.21244004 17.39699648 224.35691833 14.54667282 C223.26457241 13.45803303 222.17046275 12.37116012 221.07460022 11.28606033 C219.54442799 9.77032651 218.02054896 8.24853013 216.49804688 6.72509766 C215.62756714 5.85905914 214.7570874 4.99302063 213.86022949 4.10073853 C212 2 212 2 212 0 C261.10710222 -6.3152023 261.10710222 -6.3152023 276.84860229 5.48516846 C286.60602717 13.79923401 294.71036282 23.70514679 302.39260864 33.91870117 C304.01068436 36.01383443 305.68266181 38.03674703 307.41186523 40.04101562 C307.9537061 40.66999913 308.49554697 41.29898264 309.05380726 41.94702625 C310.91689541 44.03011642 310.91689541 44.03011642 313.06624317 45.53637981 C316.83719676 48.49225393 318.74508678 50.77462533 319.73533535 55.53477669 C320.11896685 60.04452804 320.03654635 64.55227887 319.97167969 69.07348633 C319.97597577 70.81050255 319.98373766 72.54751312 319.99468994 74.28450012 C320.01402619 78.98766445 319.98353418 83.68930285 319.94287777 88.39228272 C319.907635 93.32519821 319.91478802 98.25807008 319.9163208 103.19108582 C319.91257811 111.47733949 319.87790373 119.76300622 319.82324219 128.04907227 C319.7604059 137.60923742 319.7392479 147.16875947 319.7421844 156.72911626 C319.74489394 166.93040375 319.71707971 177.13144549 319.68039799 187.33265853 C319.67190076 190.26065438 319.66903707 193.18861017 319.66744232 196.1166172 C319.66340114 200.7322162 319.63879423 205.34728282 319.59877777 209.96270561 C319.5871699 211.64963135 319.58215748 213.33661839 319.58448792 215.02358246 C319.59467198 226.89160652 318.57299039 237.60860401 310.84765625 247.2109375 C305.16171015 252.71656819 298.44970538 256.11990619 290.55190945 256.13422108 C289.41303294 256.13867892 288.27415643 256.14313676 287.10076851 256.14772969 C285.84398814 256.14754533 284.58720776 256.14736097 283.29234314 256.14717102 C281.9480701 256.15046991 280.60379805 256.15419553 279.25952727 256.1583125 C275.55729531 256.16833803 271.85507957 256.17205019 268.15283597 256.17470181 C264.16287809 256.1786033 260.17293307 256.18818184 256.1829834 256.19691467 C246.54227993 256.21668493 236.9015754 256.22674664 227.26085672 256.23564246 C222.72098287 256.24002501 218.18111019 256.24539196 213.64123726 256.25063133 C198.54923081 256.26764524 183.4572251 256.28213892 168.36521053 256.28938007 C164.44798214 256.29128998 160.53075376 256.29321031 156.61352539 256.29516602 C155.63991397 256.29564976 154.66630255 256.2961335 153.66318775 256.2966319 C137.89500649 256.30493032 122.12690114 256.33026333 106.35875302 256.36274669 C90.17005058 256.39582447 73.9813867 256.41382954 57.79265028 256.41702431 C48.70327618 256.4191889 39.61401272 256.42792983 30.52467155 256.45348549 C22.78272835 256.47520241 15.04092266 256.48323809 7.29895245 256.47351871 C3.35034065 256.46897667 -0.59798747 256.47085431 -4.54656029 256.49028015 C-8.16593589 256.50793222 -11.78482132 256.50689799 -15.40420227 256.49138286 C-17.32434526 256.48789106 -19.2444935 256.50401801 -21.16456467 256.52098733 C-32.69534461 256.43547894 -41.68314602 253.11012529 -50 245 C-56.27744977 237.28424803 -58.3059314 230.39470745 -58.24050903 220.58474731 C-58.24221788 219.64448727 -58.24392673 218.70422724 -58.24568737 217.73547447 C-58.24897785 214.58935952 -58.23798573 211.44345853 -58.22705078 208.29736328 C-58.22648657 206.04034938 -58.22680342 203.7833351 -58.22793579 201.52632141 C-58.22850993 195.40080687 -58.21674569 189.27537056 -58.20278788 183.14987421 C-58.19029071 176.74769645 -58.18911081 170.34551693 -58.18673706 163.94332886 C-58.18122588 153.19820546 -58.16873096 142.45311627 -58.15087891 131.70800781 C-58.13251274 120.64192854 -58.11835984 109.57585707 -58.10986328 98.50976562 C-58.10933783 97.82731998 -58.10881239 97.14487433 -58.10827102 96.44174851 C-58.10566089 93.01802005 -58.10313348 89.59429154 -58.10064721 86.17056298 C-58.07992358 57.78035557 -58.04455682 29.39017932 -58 1 C-57.01 1 -56.02 1 -55 1 C-53.1953125 2.9140625 -53.1953125 2.9140625 -51.125 5.625 C-47.43988783 10.29440924 -43.58624191 14.67876654 -39.5 19 C-35.67704174 23.05784573 -31.98553689 27.14307889 -28.5 31.5 C-27.81768311 32.31194824 -27.13536621 33.12389648 -26.43237305 33.96044922 C-24.67859661 36.15200966 -23.19723494 38.22601004 -21.69458008 40.56884766 C-18.07802692 45.73379448 -14.4076466 50.1328491 -8.09637451 51.7388916 C0.19373582 52.75746419 8.49387042 52.27572863 16.8125 51.875 C19.3546457 51.8046774 21.89697881 51.74081618 24.43945312 51.68359375 C30.63043173 51.53028984 36.81433307 51.29692586 43 51 C42.25886963 50.19828369 41.51773926 49.39656738 40.75415039 48.57055664 C39.76440644 47.49632951 38.77474619 46.42202526 37.78515625 45.34765625 C37.29873657 44.82192017 36.81231689 44.29618408 36.31115723 43.7545166 C32.44130171 39.54801117 28.82993758 35.16749821 25.24609375 30.71484375 C22.12712131 26.94495533 18.80628153 23.37535549 15.4921875 19.77734375 C12.19058569 16.09797246 9.09123204 12.27296412 6.0078125 8.41015625 C4.03951264 5.96121763 4.03951264 5.96121763 1.7421875 3.80859375 C0 2 0 2 0 0 Z " fill="#010101" transform="translate(80,200)"/>
<path d="M0 0 C114.84 0 229.68 0 348 0 C348 33.33 348 66.66 348 101 C233.16 101 118.32 101 0 101 C0 67.67 0 34.34 0 0 Z " fill="#000000" transform="translate(36,319)"/>
<path d="M0 0 C1.25067003 2.7124506 2.1100971 5.15227307 2.9375 8 C6.38861452 18.89370594 10.83484324 29.27871098 15.41598511 39.73291016 C16.0462988 41.17161353 16.67396469 42.61148046 17.29870605 44.0526123 C17.87417699 45.38002982 18.4557306 46.70483251 19.04431152 48.02648926 C20.47432457 51.33340838 21 53.3130409 21 57 C16.82503417 58.60100698 12.64422213 60.18531614 8.45727539 61.75463867 C7.03466694 62.29048516 5.61373645 62.83080909 4.19458008 63.37573242 C2.15092888 64.15954961 0.10172667 64.92691237 -1.94921875 65.69140625 C-3.79519653 66.39052124 -3.79519653 66.39052124 -5.6784668 67.10375977 C-9 68 -9 68 -11.42364502 67.47329712 C-14.37088951 66.93186462 -15.75879453 67.29403659 -18.54321289 68.32348633 C-19.41083755 68.63743851 -20.27846222 68.95139069 -21.17237854 69.27485657 C-22.09647018 69.62372421 -23.02056183 69.97259186 -23.97265625 70.33203125 C-24.93272079 70.68383957 -25.89278534 71.03564789 -26.88194275 71.39811707 C-29.9465455 72.52466337 -33.00433703 73.66860331 -36.0625 74.8125 C-38.12525062 75.57205188 -40.1883977 76.33052797 -42.25195312 77.08789062 C-46.03235023 78.48183363 -49.81241574 79.8765228 -53.58618164 81.28833008 C-54.34387344 81.57114334 -55.10156525 81.8539566 -55.88221741 82.14533997 C-59.02239823 83.40710209 -59.02239823 83.40710209 -62 85 C-62.33 85.99 -62.66 86.98 -63 88 C-65.00498962 89.04411316 -65.00498962 89.04411316 -67.67163086 89.99291992 C-68.66613754 90.35306686 -69.66064423 90.71321381 -70.68528748 91.08427429 C-71.76754105 91.46251846 -72.84979462 91.84076263 -73.96484375 92.23046875 C-75.0684877 92.62575272 -76.17213165 93.02103668 -77.30921936 93.42829895 C-79.64683958 94.26321568 -81.98646199 95.09254423 -84.32788086 95.91674805 C-87.92268039 97.18228281 -91.51154592 98.46355315 -95.09960938 99.74804688 C-97.3668587 100.55561121 -99.63442649 101.36228212 -101.90234375 102.16796875 C-103.52268776 102.74444405 -103.52268776 102.74444405 -105.17576599 103.33256531 C-106.17342484 103.68325577 -107.17108368 104.03394623 -108.19897461 104.39526367 C-109.07976181 104.70598312 -109.96054901 105.01670258 -110.86802673 105.33683777 C-113 106 -113 106 -115 106 C-115 105.34 -115 104.68 -115 104 C-115.98613281 104.38929687 -116.97226562 104.77859375 -117.98828125 105.1796875 C-119.42947008 105.74534593 -120.87089921 106.31039231 -122.3125 106.875 C-123.09052979 107.18018555 -123.86855957 107.48537109 -124.67016602 107.79980469 C-129.79133888 109.79375034 -134.93442533 111.71414725 -140.1015625 113.5859375 C-141.92046997 114.24746826 -141.92046997 114.24746826 -143.77612305 114.92236328 C-146.19692568 115.80016049 -148.62024395 116.67105397 -151.04614258 117.53466797 C-152.72293091 118.1439917 -152.72293091 118.1439917 -154.43359375 118.765625 C-155.43447021 119.12430664 -156.43534668 119.48298828 -157.46655273 119.85253906 C-159.98768879 120.80690733 -159.98768879 120.80690733 -161.41748047 122.46734619 C-163.17872672 124.17309498 -164.56665544 124.81871233 -166.85375977 125.66992188 C-167.62208633 125.96032349 -168.3904129 126.2507251 -169.18202209 126.54992676 C-170.01011887 126.85313843 -170.83821564 127.1563501 -171.69140625 127.46875 C-172.55128647 127.79033081 -173.41116669 128.11191162 -174.29710388 128.4432373 C-176.11891351 129.12276334 -177.94220574 129.79832576 -179.7668457 130.47021484 C-182.53083897 131.48833759 -185.29013325 132.51839987 -188.04882812 133.55078125 C-189.82525505 134.21165236 -191.60194007 134.87183021 -193.37890625 135.53125 C-194.1928334 135.83446167 -195.00676056 136.13767334 -195.84535217 136.45007324 C-210.95069538 142 -210.95069538 142 -216 142 C-218.86052707 142.97222459 -221.67715821 143.99039552 -224.5 145.0625 C-225.33208984 145.37324463 -226.16417969 145.68398926 -227.02148438 146.00415039 C-229.68275283 146.99813316 -232.34162469 147.99830728 -235 149 C-238.49795197 150.31805054 -241.9981877 151.62974535 -245.5 152.9375 C-246.30630859 153.24373291 -247.11261719 153.54996582 -247.94335938 153.86547852 C-253.66159457 156 -253.66159457 156 -257 156 C-257.11198227 156.92483185 -257.11198227 156.92483185 -257.22622681 157.86834717 C-258 160 -258 160 -259.8843689 161.16436768 C-260.70804962 161.4752533 -261.53173035 161.78613892 -262.38037109 162.10644531 C-263.31158783 162.46651672 -264.24280457 162.82658813 -265.20223999 163.1975708 C-266.21573517 163.57065369 -267.22923035 163.94373657 -268.2734375 164.328125 C-269.82546371 164.91892853 -269.82546371 164.91892853 -271.40884399 165.52166748 C-273.60018664 166.35254254 -275.79441178 167.17584846 -277.99121094 167.9921875 C-281.35980514 169.24435181 -284.71943705 170.51840668 -288.078125 171.796875 C-290.20524061 172.60025309 -292.33282975 173.40237874 -294.4609375 174.203125 C-295.47038422 174.58430481 -296.47983093 174.96548462 -297.51986694 175.35821533 C-298.457388 175.7056781 -299.39490906 176.05314087 -300.36083984 176.41113281 C-301.18611176 176.71883606 -302.01138367 177.02653931 -302.86166382 177.34356689 C-305 178 -305 178 -308 178 C-308 177.34 -308 176.68 -308 176 C-314.06319586 178.11601041 -320.11177628 180.27030306 -326.15185547 182.45141602 C-328.20697642 183.18844166 -330.26525154 183.91673433 -332.32666016 184.63598633 C-335.29427165 185.67314722 -338.24901445 186.74148441 -341.203125 187.81640625 C-342.12305237 188.13025772 -343.04297974 188.44410919 -343.99078369 188.76747131 C-348.3907889 190.40255411 -351.21525909 191.59766479 -353.61230469 195.76147461 C-354.07024414 196.83018799 -354.52818359 197.89890137 -355 199 C-355.66 199 -356.32 199 -357 199 C-359.17059772 193.86363892 -361.33928425 188.72647628 -363.50634766 183.58862305 C-364.24087325 181.8478519 -364.9758838 180.10728529 -365.71142578 178.36694336 C-367.82534355 173.36477369 -369.92743347 168.35790475 -372.01672363 163.34539795 C-372.95405628 161.10958903 -373.90688964 158.88095934 -374.86230469 156.65283203 C-375.4166409 155.33261914 -375.97038962 154.01215935 -376.5234375 152.69140625 C-377.00474121 151.56033447 -377.48604492 150.4292627 -377.98193359 149.26391602 C-379.27338829 145.12351845 -379.99952888 140.99905776 -378 137 C-376.1872406 136.1342926 -376.1872406 136.1342926 -373.79077148 135.26000977 C-372.89571396 134.92949112 -372.00065643 134.59897247 -371.07847595 134.25843811 C-370.10253983 133.9063176 -369.1266037 133.55419708 -368.12109375 133.19140625 C-367.12046402 132.8240184 -366.11983429 132.45663055 -365.08888245 132.07810974 C-361.8741733 130.89950447 -358.65594585 129.73085802 -355.4375 128.5625 C-353.29337763 127.77865688 -351.14949427 126.99415964 -349.00585938 126.20898438 C-344.16705848 124.43736741 -339.32621892 122.67149437 -334.48214722 120.91433716 C-332.14744508 120.05431367 -329.83041069 119.15633497 -327.51196289 118.25366211 C-324 117 -324 117 -321 117 C-321 117.66 -321 118.32 -321 119 C-319.84999512 118.55084229 -318.69999023 118.10168457 -317.51513672 117.63891602 C-313.23467709 115.96885797 -308.95128995 114.30642455 -304.66699219 112.64624023 C-302.81560247 111.92760444 -300.96500551 111.20692271 -299.11523438 110.48413086 C-296.4512951 109.44361909 -293.78456103 108.41057712 -291.1171875 107.37890625 C-290.29507782 107.05596085 -289.47296814 106.73301544 -288.62594604 106.40028381 C-284.41894936 104.78167568 -280.50987167 103.53598334 -276 103 C-275.9069458 102.37689941 -275.8138916 101.75379883 -275.71801758 101.11181641 C-275 99 -275 99 -271.51171875 97.2109375 C-269.91039878 96.58150017 -268.30156422 95.97099807 -266.6875 95.375 C-265.82261963 95.0437915 -264.95773926 94.71258301 -264.06665039 94.37133789 C-261.05162111 93.22739799 -258.02658901 92.11298323 -255 91 C-253.79794922 90.55156738 -252.59589844 90.10313477 -251.35742188 89.64111328 C-248.18500131 88.45781556 -245.00797568 87.28775665 -241.82705688 86.12750244 C-239.95250348 85.44297877 -238.0801216 84.75251801 -236.20776367 84.06201172 C-235.0551001 83.64838379 -233.90243652 83.23475586 -232.71484375 82.80859375 C-231.16978149 82.24869751 -231.16978149 82.24869751 -229.59350586 81.67749023 C-227 81 -227 81 -224 82 C-221.89131296 81.531848 -221.89131296 81.531848 -219.6237793 80.63232422 C-218.7424382 80.30803436 -217.86109711 79.98374451 -216.95304871 79.64962769 C-216.00303482 79.28829742 -215.05302094 78.92696716 -214.07421875 78.5546875 C-213.09387161 78.18779816 -212.11352448 77.82090881 -211.10346985 77.44290161 C-209.02627444 76.66226933 -206.9508911 75.876801 -204.87719727 75.08691406 C-201.71614221 73.8858825 -198.54723429 72.70767623 -195.37695312 71.53125 C-193.35885524 70.76960494 -191.34126004 70.00662633 -189.32421875 69.2421875 C-188.38027756 68.89300262 -187.43633636 68.54381775 -186.46379089 68.18405151 C-181.0655328 66.10423288 -177.46682748 63.72788253 -173 60 C-169.68468534 58.35998184 -166.25411028 57.08024713 -162.7890625 55.79296875 C-161.82092621 55.42271072 -160.85278992 55.0524527 -159.85531616 54.67097473 C-156.78262515 53.49872948 -153.7040498 52.34292583 -150.625 51.1875 C-148.53214138 50.3923562 -146.43968856 49.59614343 -144.34765625 48.79882812 C-139.23640311 46.85348732 -134.12022868 44.92158358 -129 43 C-128.67 43.99 -128.34 44.98 -128 46 C-126.8346875 45.52691406 -125.669375 45.05382813 -124.46875 44.56640625 C-114.646496 40.5977368 -104.78793786 36.73681819 -94.875 33 C-93.82634766 32.60240479 -92.77769531 32.20480957 -91.69726562 31.79516602 C-90.72208984 31.42963623 -89.74691406 31.06410645 -88.7421875 30.6875 C-87.8744873 30.36136719 -87.00678711 30.03523438 -86.11279297 29.69921875 C-84 29 -84 29 -82 29 C-81.87518501 28.0661573 -81.87518501 28.0661573 -81.74784851 27.1134491 C-81 25 -81 25 -79.28767395 23.95625305 C-78.54410141 23.70167831 -77.80052887 23.44710358 -77.03442383 23.18481445 C-76.19297318 22.88803299 -75.35152252 22.59125153 -74.48457336 22.28547668 C-73.10969002 21.82898994 -73.10969002 21.82898994 -71.70703125 21.36328125 C-70.29885384 20.87591743 -70.29885384 20.87591743 -68.86222839 20.37870789 C-66.87160714 19.69304108 -64.87828454 19.01517524 -62.88256836 18.34448242 C-59.83711733 17.32077495 -56.8 16.27502944 -53.76367188 15.22460938 C-51.82857369 14.56118979 -49.89303992 13.89903912 -47.95703125 13.23828125 C-46.59732964 12.77268547 -46.59732964 12.77268547 -45.2101593 12.29768372 C-40.79438914 10.81758091 -36.60653111 9.73543861 -32 9 C-29.87636726 8.27792784 -27.77094342 7.50076945 -25.68359375 6.6796875 C-23.91918945 6.00099609 -23.91918945 6.00099609 -22.11914062 5.30859375 C-19.65867395 4.35051283 -17.20033904 3.38693968 -14.74414062 2.41796875 C-12.98166992 1.74314453 -12.98166992 1.74314453 -11.18359375 1.0546875 C-9.58342407 0.42796143 -9.58342407 0.42796143 -7.95092773 -0.21142578 C-4.77243346 -1.06081244 -3.07003138 -1.16110161 0 0 Z " fill="#010101" transform="translate(379,1)"/>
<path d="M0 0 C57.09 0 114.18 0 173 0 C173 16.17 173 32.34 173 49 C115.91 49 58.82 49 0 49 C0 32.83 0 16.66 0 0 Z " fill="#000000" transform="translate(36,267)"/>
<path d="M0 0 C56.43 0 112.86 0 171 0 C171 16.17 171 32.34 171 49 C114.57 49 58.14 49 0 49 C0 32.83 0 16.66 0 0 Z " fill="#010101" transform="translate(213,267)"/>
<path d="M0 0 C-2.31941434 7.38489113 -5.22243091 14.4069443 -8.3125 21.5 C-9.38401562 23.96823833 -10.45469365 26.43681276 -11.5234375 28.90625 C-11.80229294 29.54989502 -12.08114838 30.19354004 -12.36845398 30.85668945 C-14.54223129 35.89294653 -16.64197247 40.95753799 -18.7265625 46.03125 C-19.65887968 48.28466913 -20.59243508 50.53757091 -21.52645874 52.7902832 C-22.1305641 54.25553162 -22.72976625 55.72281182 -23.32388306 57.19213867 C-24.16017485 59.25862121 -25.01377109 61.31717108 -25.87109375 63.375 C-26.35505615 64.55835938 -26.83901855 65.74171875 -27.33764648 66.9609375 C-30.9448453 73.55550512 -36.56827477 75.18154969 -43.31640625 77.42578125 C-45.15068855 78.06359697 -46.98466394 78.70229588 -48.81835938 79.34179688 C-51.6941461 80.33267612 -54.57199332 81.3156842 -57.45581055 82.28295898 C-60.25079902 83.22526938 -63.03360559 84.19816098 -65.81640625 85.17578125 C-66.67690079 85.45521072 -67.53739532 85.7346402 -68.42396545 86.02253723 C-72.70725664 87.55006058 -75.25621974 88.71198025 -77.57397461 92.73901367 C-78.04456299 93.81513916 -78.51515137 94.89126465 -79 96 C-79.66 96 -80.32 96 -81 96 C-83.17059772 90.86363892 -85.33928425 85.72647628 -87.50634766 80.58862305 C-88.24087325 78.8478519 -88.9758838 77.10728529 -89.71142578 75.36694336 C-91.82534355 70.36477369 -93.92743347 65.35790475 -96.01672363 60.34539795 C-96.95405628 58.10958903 -97.90688964 55.88095934 -98.86230469 53.65283203 C-99.4166409 52.33261914 -99.97038962 51.01215935 -100.5234375 49.69140625 C-101.00474121 48.56033447 -101.48604492 47.4292627 -101.98193359 46.26391602 C-103.27338829 42.12351845 -103.99952888 37.99905776 -102 34 C-100.1872406 33.1342926 -100.1872406 33.1342926 -97.79077148 32.26000977 C-96.89571396 31.92949112 -96.00065643 31.59897247 -95.07847595 31.25843811 C-94.10253983 30.9063176 -93.1266037 30.55419708 -92.12109375 30.19140625 C-91.12046402 29.8240184 -90.11983429 29.45663055 -89.08888245 29.07810974 C-85.8741733 27.89950447 -82.65594585 26.73085802 -79.4375 25.5625 C-77.29337763 24.77865688 -75.14949427 23.99415964 -73.00585938 23.20898438 C-68.16705848 21.43736741 -63.32621892 19.67149437 -58.48214722 17.91433716 C-56.14744508 17.05431367 -53.83041069 16.15633497 -51.51196289 15.25366211 C-48 14 -48 14 -45 14 C-45 14.66 -45 15.32 -45 16 C-43.83428467 15.55084229 -42.66856934 15.10168457 -41.4675293 14.63891602 C-37.14601331 12.97401164 -32.82415718 11.30999181 -28.50219727 9.64624023 C-26.63101039 8.92577892 -24.75991609 8.20507715 -22.88891602 7.48413086 C-20.20092631 6.4484244 -17.51260585 5.41358067 -14.82421875 4.37890625 C-13.98662521 4.05596085 -13.14903168 3.73301544 -12.28605652 3.40028381 C-11.50547379 3.10004807 -10.72489105 2.79981232 -9.9206543 2.49047852 C-9.23448532 2.22622574 -8.54831635 1.96197296 -7.84135437 1.68971252 C-5.05730149 0.64689525 -3.00487147 0 0 0 Z " fill="#FDFDFD" transform="translate(103,104)"/>
<path d="M0 0 C1.61248238 0.00056958 1.61248238 0.00056958 3.25754017 0.00115067 C4.49265325 -0.00084038 5.72776633 -0.00283143 7.00030708 -0.00488281 C8.38867379 -0.00202922 9.77704031 0.00091639 11.16540664 0.00394398 C12.62644922 0.00350841 14.08749172 0.00263376 15.5485338 0.00135481 C19.58244146 -0.00089288 23.61632282 0.00313487 27.65022713 0.00813287 C31.99312675 0.01243327 36.33602478 0.01099124 40.67892593 0.0102306 C48.20963085 0.0097051 55.74032714 0.01285458 63.27102989 0.01846844 C74.1592922 0.02657997 85.04755032 0.0291983 95.93581533 0.03045643 C113.59937918 0.0326475 131.26293843 0.03930906 148.92649978 0.04875904 C166.08958549 0.05793175 183.25266994 0.06500181 200.4157576 0.06926686 C201.48368567 0.06953485 202.55161374 0.06980285 203.65190327 0.07007897 C212.00324305 0.07215827 220.35458285 0.07411524 228.70592266 0.07603353 C269.67260038 0.08547489 310.63926658 0.10559138 351.60594314 0.1241985 C351.60594314 52.5941985 351.60594314 105.0641985 351.60594314 159.1241985 C234.45594314 159.1241985 117.30594314 159.1241985 -3.39405686 159.1241985 C-3.39405686 0.17607634 -3.39405686 0.17607634 0 0 Z M0.60594314 3.1241985 C0.60594314 19.2941985 0.60594314 35.4641985 0.60594314 52.1241985 C57.69594314 52.1241985 114.78594314 52.1241985 173.60594314 52.1241985 C173.60594314 35.9541985 173.60594314 19.7841985 173.60594314 3.1241985 C116.51594314 3.1241985 59.42594314 3.1241985 0.60594314 3.1241985 Z M177.60594314 3.1241985 C177.60594314 19.2941985 177.60594314 35.4641985 177.60594314 52.1241985 C234.03594314 52.1241985 290.46594314 52.1241985 348.60594314 52.1241985 C348.60594314 35.9541985 348.60594314 19.7841985 348.60594314 3.1241985 C292.17594314 3.1241985 235.74594314 3.1241985 177.60594314 3.1241985 Z M0.60594314 55.1241985 C0.60594314 88.4541985 0.60594314 121.7841985 0.60594314 156.1241985 C115.44594314 156.1241985 230.28594314 156.1241985 348.60594314 156.1241985 C348.60594314 122.7941985 348.60594314 89.4641985 348.60594314 55.1241985 C233.76594314 55.1241985 118.92594314 55.1241985 0.60594314 55.1241985 Z " fill="#F6F6F6" transform="translate(35.39405685663223,263.8758015036583)"/>
<path d="M0 0 C1.25067003 2.7124506 2.1100971 5.15227307 2.9375 8 C6.38861452 18.89370594 10.83484324 29.27871098 15.41598511 39.73291016 C16.0462988 41.17161353 16.67396469 42.61148046 17.29870605 44.0526123 C17.87417699 45.38002982 18.4557306 46.70483251 19.04431152 48.02648926 C20.47432457 51.33340838 21 53.3130409 21 57 C16.82503417 58.60100698 12.64422213 60.18531614 8.45727539 61.75463867 C7.03466694 62.29048516 5.61373645 62.83080909 4.19458008 63.37573242 C2.15092888 64.15954961 0.10172667 64.92691237 -1.94921875 65.69140625 C-3.79519653 66.39052124 -3.79519653 66.39052124 -5.6784668 67.10375977 C-9 68 -9 68 -11.42364502 67.4723053 C-14.3762964 66.93101619 -15.75760401 67.29838831 -18.54321289 68.33935547 C-19.41083755 68.65653534 -20.27846222 68.97371521 -21.17237854 69.30050659 C-22.09647018 69.65251129 -23.02056183 70.00451599 -23.97265625 70.3671875 C-24.93272079 70.72136749 -25.89278534 71.07554749 -26.88194275 71.44046021 C-29.9466064 72.57364744 -33.00458336 73.72374474 -36.0625 74.875 C-39.12522639 76.01550211 -42.18921552 77.15253357 -45.25376892 78.28811646 C-47.15939403 78.99562879 -49.06371409 79.70666833 -50.96656799 80.42160034 C-51.8310405 80.74508453 -52.695513 81.06856873 -53.58618164 81.40185547 C-54.34387344 81.68688934 -55.10156525 81.97192322 -55.88221741 82.26559448 C-57.90540987 82.96719799 -59.91513147 83.51616983 -62 84 C-61.41219074 77.64297202 -59.41002537 72.11516885 -57.17578125 66.16015625 C-56.59995552 64.60052406 -56.59995552 64.60052406 -56.01249695 63.00938416 C-54.7856614 59.69130683 -53.54921821 56.3769048 -52.3125 53.0625 C-51.09948363 49.78820237 -49.88833889 46.51321717 -48.67745972 43.23812866 C-47.88855343 41.11326251 -47.09475426 38.99020617 -46.29592896 36.86904907 C-44.56553362 32.27214762 -42.86983294 27.68213001 -41.36083984 23.00732422 C-37.60123886 11.55004288 -37.60123886 11.55004288 -33.38671875 9.30078125 C-31.9366728 8.82800765 -30.47223774 8.39832672 -29 8 C-27.0433026 7.21384822 -25.09182511 6.41463249 -23.14453125 5.60546875 C-21.03565908 4.79476836 -18.92493946 3.98885914 -16.8125 3.1875 C-15.74580078 2.76791016 -14.67910156 2.34832031 -13.58007812 1.91601562 C-12.54947266 1.52478516 -11.51886719 1.13355469 -10.45703125 0.73046875 C-9.52866455 0.37364014 -8.60029785 0.01681152 -7.64379883 -0.35083008 C-4.63944932 -1.08853119 -2.90534016 -1.05056647 0 0 Z " fill="#FDFDFD" transform="translate(379,1)"/>
<path d="M0 0 C-1.36957595 3.45434628 -2.7864797 6.88400916 -4.24316406 10.30249023 C-4.68412415 11.3380455 -5.12508423 12.37360077 -5.57940674 13.4405365 C-6.05335876 14.55199539 -6.52731079 15.66345428 -7.015625 16.80859375 C-7.5090741 17.96690201 -8.00252319 19.12521027 -8.51092529 20.31861877 C-9.5563446 22.77233625 -10.60196451 25.22596698 -11.64794922 27.67944336 C-13.23077446 31.39214659 -14.81268345 35.10523958 -16.39453125 38.81835938 C-17.41405818 41.21093934 -18.43358936 43.6035175 -19.453125 45.99609375 C-19.94671509 47.15491058 -20.44030518 48.31372742 -20.94885254 49.50765991 C-22.95719836 54.22029148 -24.9663294 58.9323766 -27.00195312 63.63330078 C-27.42163361 64.6039724 -27.42163361 64.6039724 -27.84979248 65.59425354 C-28.53270156 67.17066506 -29.21878731 68.74569953 -29.90527344 70.32055664 C-31.11840011 73.00390771 -31.11840011 73.00390771 -31.5012207 76.07055664 C-33.96805254 80.89210987 -38.45973724 81.75651759 -43.37109375 83.5234375 C-44.40436295 83.91447662 -45.43763214 84.30551575 -46.50221252 84.70840454 C-49.80636683 85.95214502 -53.12154315 87.16312789 -56.4375 88.375 C-58.66806483 89.21285743 -60.89789316 90.05267841 -63.12695312 90.89453125 C-65.24935428 91.68922667 -67.37238139 92.48225277 -69.49609375 93.2734375 C-70.50240341 93.6483432 -71.50871307 94.0232489 -72.54551697 94.40951538 C-73.94695702 94.92102646 -73.94695702 94.92102646 -75.37670898 95.44287109 C-76.61009254 95.89537735 -76.61009254 95.89537735 -77.86839294 96.35702515 C-80 97 -80 97 -83 97 C-81.41240309 92.97287842 -79.72695476 88.99128528 -78.015625 85.015625 C-77.4103794 83.60637295 -76.80515577 82.19711146 -76.19995117 80.7878418 C-75.72312393 79.67836685 -75.72312393 79.67836685 -75.23666382 78.54647827 C-69.840631 65.98711217 -64.45750938 53.42210419 -59.10559082 40.84387207 C-58.49746581 39.41553431 -57.88850848 37.98755061 -57.27868652 36.55993652 C-56.42701405 34.5656534 -55.57836182 32.57011111 -54.73046875 30.57421875 C-54.00960083 28.88171997 -54.00960083 28.88171997 -53.27416992 27.1550293 C-51.94345819 24.01636 -51.94345819 24.01636 -51.0534668 20.71313477 C-50 18 -50 18 -48.38134766 16.74316406 C-47.73214355 16.50307617 -47.08293945 16.26298828 -46.4140625 16.015625 C-45.66108887 15.72494141 -44.90811523 15.43425781 -44.13232422 15.13476562 C-42.89119873 14.69680664 -42.89119873 14.69680664 -41.625 14.25 C-40.33553467 13.76563477 -40.33553467 13.76563477 -39.02001953 13.27148438 C-36.02215912 12.15536597 -33.01190501 11.07762085 -30 10 C-28.1471334 9.32361952 -26.29428064 8.64720009 -24.44192505 7.96942139 C-18.84260407 5.92364359 -13.2351393 3.90029786 -7.6171875 1.90625 C-6.58190918 1.53822266 -5.54663086 1.17019531 -4.47998047 0.79101562 C-2 0 -2 0 0 0 Z " fill="#010101" transform="translate(154,82)"/>
<path d="M0 0 C-2.27932638 8.09328875 -5.10600647 15.94245426 -8.03515625 23.8203125 C-8.51970654 25.13192817 -9.00386549 26.44368847 -9.48765564 27.75558472 C-11.52437214 33.27613057 -13.56891744 38.79377021 -15.61450195 44.31103516 C-16.87286169 47.7058833 -18.1271113 51.10222851 -19.37905693 54.49944687 C-20.08150425 56.40157516 -20.78873573 58.30187823 -21.49610901 60.20217896 C-22.14204262 61.95472488 -22.14204262 61.95472488 -22.80102539 63.74267578 C-23.20692902 64.83175232 -23.61283264 65.92082886 -24.03103638 67.04290771 C-24.87529626 69.61942794 -25.28851512 71.87995666 -25.61499023 74.55224609 C-27.24486209 78.60954389 -27.93172088 78.84732301 -31.78515625 80.56054688 C-33.86583713 81.31330394 -35.95955412 82.03064044 -38.0625 82.71875 C-39.164729 83.10695923 -40.26695801 83.49516846 -41.40258789 83.8951416 C-44.92529452 85.12735331 -48.46166524 86.3135098 -52 87.5 C-54.38382047 88.32783231 -56.76664843 89.15852858 -59.1484375 89.9921875 C-63.49819432 91.50353325 -67.85035652 93.00628456 -72.21484375 94.47460938 C-73.53150024 94.91806702 -73.53150024 94.91806702 -74.87475586 95.3704834 C-77 96 -77 96 -79 96 C-78.36530092 93.18940302 -77.50582662 90.67270877 -76.33276367 88.04296875 C-75.81978729 86.88623405 -75.81978729 86.88623405 -75.29644775 85.70613098 C-74.73785065 84.45940865 -74.73785065 84.45940865 -74.16796875 83.1875 C-73.7796991 82.3136113 -73.39142944 81.4397226 -72.99139404 80.53935242 C-72.15815479 78.66435703 -71.32356563 76.78996107 -70.48776245 74.91610718 C-68.31234933 70.03729382 -66.14845907 65.15337797 -63.984375 60.26953125 C-63.34078285 58.81774223 -63.34078285 58.81774223 -62.68418884 57.33662415 C-59.05424386 49.1405441 -55.47201824 40.92514887 -51.9375 32.6875 C-51.21566528 31.01204102 -51.21566528 31.01204102 -50.47924805 29.30273438 C-50.04136963 28.27857422 -49.60349121 27.25441406 -49.15234375 26.19921875 C-48.5953479 24.89730591 -48.5953479 24.89730591 -48.02709961 23.5690918 C-46.88572939 20.96986169 -46.88572939 20.96986169 -46.46118164 17.91674805 C-44.4761759 13.95436482 -42.33710672 13.4612704 -38.26867676 12.03323364 C-36.88271301 11.58752518 -36.88271301 11.58752518 -35.46875 11.1328125 C-34.52189331 10.80836151 -33.57503662 10.48391052 -32.5994873 10.14962769 C-29.57336302 9.11904852 -26.53726313 8.12220991 -23.5 7.125 C-21.4537126 6.43179304 -19.40812906 5.73650459 -17.36328125 5.0390625 C-13.62707687 3.77427781 -9.88964292 2.5140185 -6.14257812 1.28173828 C-5.38916138 1.03336212 -4.63574463 0.78498596 -3.85949707 0.52908325 C-2 0 -2 0 0 0 Z " fill="#010101" transform="translate(343,11)"/>
<path d="M0 0 C-1.94857414 6.18801399 -4.23880707 12.11570944 -6.87890625 18.0390625 C-7.24739182 18.87515549 -7.61587738 19.71124847 -7.99552917 20.57267761 C-9.18032445 23.2586628 -10.37087219 25.94203975 -11.5625 28.625 C-13.19534414 32.30800408 -14.82667532 35.99167508 -16.45703125 39.67578125 C-16.85493866 40.57393051 -17.25284607 41.47207977 -17.66281128 42.39744568 C-19.90157676 47.46453823 -22.0851509 52.54759985 -24.19921875 57.66796875 C-24.64257568 58.73257324 -25.08593262 59.79717773 -25.54272461 60.89404297 C-26.3202595 62.77364904 -27.08393721 64.65907799 -27.83032227 66.55126953 C-28.16990967 67.3657959 -28.50949707 68.18032227 -28.859375 69.01953125 C-29.13233398 69.70120361 -29.40529297 70.38287598 -29.68652344 71.08520508 C-33.49788693 76.64143628 -40.48902471 78.51798867 -46.5546875 80.671875 C-47.45623566 80.99915588 -48.35778381 81.32643677 -49.28665161 81.66363525 C-52.14677167 82.6999749 -55.01075293 83.72512908 -57.875 84.75 C-59.82318292 85.4536904 -61.77110265 86.15810987 -63.71875 86.86328125 C-68.47616222 88.58397369 -73.23706742 90.29465079 -78 92 C-79.40901455 87.77295635 -77.61580213 85.16264128 -75.87109375 81.30078125 C-75.5304892 80.52537994 -75.18988464 79.74997864 -74.83895874 78.95108032 C-73.71555274 76.40012785 -72.57793675 73.85588064 -71.4375 71.3125 C-69.85432598 67.76931559 -68.27395339 64.22489379 -66.6953125 60.6796875 C-66.29570816 59.78497238 -65.89610382 58.89025726 -65.48439026 57.96842957 C-62.92426466 52.20003747 -60.53436513 46.38708521 -58.2421875 40.5078125 C-57.37404998 38.33726778 -56.50154506 36.16854336 -55.62698364 34.00057983 C-55.09062812 32.64199606 -54.57128359 31.27655335 -54.07052612 29.90444946 C-52.03570002 24.34545398 -50.14983588 19.43203885 -45.04736328 16.03320312 C-42.06427976 14.7221258 -39.09999644 13.61256677 -35.99057007 12.64151001 C-33.21692472 11.74763479 -30.52229601 10.67720259 -27.8105011 9.61271667 C-25.01186935 8.51888975 -22.1973417 7.46987332 -19.38183594 6.42041016 C-17.20838535 5.60947314 -15.03773183 4.79133632 -12.8671875 3.97265625 C-11.47932504 3.45270208 -10.09131013 2.93315458 -8.703125 2.4140625 C-8.0574054 2.17039948 -7.41168579 1.92673645 -6.74639893 1.6756897 C-2.23006642 0 -2.23006642 0 0 0 Z " fill="#FDFDFD" transform="translate(297,30)"/>
<path d="M0 0 C-0.71923805 1.48078421 -1.43847621 2.96156837 -2.15771484 4.44235229 C-2.81372257 5.79295767 -3.46972836 7.14356399 -4.12573242 8.49417114 C-5.9933635 12.33931615 -7.86103079 16.18444356 -9.72875977 20.02954102 C-13.36950139 27.52483455 -17.01002073 35.0202356 -20.64927673 42.51625061 C-22.20471907 45.7200672 -23.76032783 48.92380296 -25.31594849 52.12753296 C-26.06153567 53.66315732 -26.80703989 55.19882197 -27.55245972 56.73452759 C-28.5959613 58.88431823 -29.63974766 61.03397037 -30.68359375 63.18359375 C-30.99119629 63.81750031 -31.29879883 64.45140686 -31.61572266 65.10452271 C-32.40872645 66.73720221 -33.20423578 68.36866414 -34 70 C-34.32009033 70.76223877 -34.64018066 71.52447754 -34.9699707 72.30981445 C-36.30281795 74.49689706 -37.42185584 74.94967474 -39.796875 75.859375 C-40.58070557 76.16681641 -41.36453613 76.47425781 -42.17211914 76.79101562 C-43.44817017 77.26571289 -43.44817017 77.26571289 -44.75 77.75 C-45.6258374 78.08708984 -46.5016748 78.42417969 -47.40405273 78.77148438 C-50.26328186 79.86456305 -53.13062327 80.93386629 -56 82 C-57.50941162 82.56750977 -57.50941162 82.56750977 -59.04931641 83.14648438 C-62.05047129 84.27329249 -65.05522489 85.38963687 -68.0625 86.5 C-69.00770508 86.85030273 -69.95291016 87.20060547 -70.92675781 87.56152344 C-71.8081543 87.8815332 -72.68955078 88.20154297 -73.59765625 88.53125 C-74.76566772 88.95760742 -74.76566772 88.95760742 -75.95727539 89.39257812 C-78 90 -78 90 -81 90 C-78.64454365 82.50815469 -75.70381044 75.36165936 -72.59765625 68.15234375 C-72.07868271 66.94107315 -71.55970917 65.72980255 -71.02500916 64.48182678 C-69.93211733 61.93180528 -68.83676632 59.38285977 -67.73950195 56.8347168 C-66.34242014 53.58998996 -64.95070126 50.34299684 -63.5607233 47.09522152 C-62.22139486 43.96734226 -60.87816244 40.84114574 -59.53515625 37.71484375 C-59.04024185 36.55943588 -58.54532745 35.40402802 -58.03541565 34.21360779 C-57.11337666 32.07463641 -56.18055168 29.94026834 -55.23483276 27.81166077 C-54.47511741 26.08182179 -53.74642141 24.33747085 -53.07107544 22.57298279 C-51.43260154 18.61152727 -50.01019855 16.63639603 -46.09277344 14.76245117 C-44.52581867 14.16027408 -42.94694999 13.58846867 -41.359375 13.04296875 C-40.09785614 12.57120964 -40.09785614 12.57120964 -38.81085205 12.08992004 C-36.13294606 11.09542033 -33.44270089 10.14111464 -30.75 9.1875 C-28.95606724 8.52931427 -27.16308545 7.86853043 -25.37109375 7.20507812 C-21.31969702 5.71052885 -17.26056955 4.2404233 -13.18981934 2.79940796 C-11.70241016 2.25641945 -10.2245603 1.68665342 -8.75646973 1.09341431 C-3.30204171 -1.10068057 -3.30204171 -1.10068057 0 0 Z " fill="#FDFDFD" transform="translate(203,67)"/>
<path d="M0 0 C-1.59643522 4.05186115 -3.29548927 8.05594856 -5.01953125 12.0546875 C-5.62996455 13.47400456 -6.24031239 14.89335838 -6.85058594 16.31274414 C-7.17055542 17.05654327 -7.4905249 17.80034241 -7.82019043 18.56668091 C-13.0468266 30.7249271 -18.26148194 42.888855 -23.41122437 55.07989502 C-23.96343941 56.38515979 -24.51745028 57.6896665 -25.07339478 58.99334717 C-27.91135365 65.65248794 -30.54431519 72.15859393 -32.25292969 79.20483398 C-32.62272949 80.09344116 -32.62272949 80.09344116 -33 81 C-34.485 81.495 -34.485 81.495 -36 82 C-38.17059772 76.86363892 -40.33928425 71.72647628 -42.50634766 66.58862305 C-43.24087325 64.8478519 -43.9758838 63.10728529 -44.71142578 61.36694336 C-46.82534355 56.36477369 -48.92743347 51.35790475 -51.01672363 46.34539795 C-51.95405628 44.10958903 -52.90688964 41.88095934 -53.86230469 39.65283203 C-54.4166409 38.33261914 -54.97038962 37.01215935 -55.5234375 35.69140625 C-56.00474121 34.56033447 -56.48604492 33.4292627 -56.98193359 32.26391602 C-58.27338829 28.12351845 -58.99952888 23.99905776 -57 20 C-55.1872406 19.1342926 -55.1872406 19.1342926 -52.79077148 18.26000977 C-51.89571396 17.92949112 -51.00065643 17.59897247 -50.07847595 17.25843811 C-49.10253983 16.9063176 -48.1266037 16.55419708 -47.12109375 16.19140625 C-46.12046402 15.8240184 -45.11983429 15.45663055 -44.08888245 15.07810974 C-40.8741733 13.89950447 -37.65594585 12.73085802 -34.4375 11.5625 C-32.29337763 10.77865688 -30.14949427 9.99415964 -28.00585938 9.20898438 C-23.16705848 7.43736741 -18.32621892 5.67149437 -13.48214722 3.91433716 C-11.14744508 3.05431367 -8.83041069 2.15633497 -6.51196289 1.25366211 C-3 0 -3 0 0 0 Z " fill="#000000" transform="translate(58,118)"/>
<path d="M0 0 C2.58147842 2.58147842 3.65329093 5.52258319 5.0390625 8.8359375 C5.32478119 9.5116983 5.61049988 10.18745911 5.90487671 10.88369751 C6.50745395 12.3133367 7.1074578 13.74406288 7.70507812 15.17578125 C8.62007148 17.36321759 9.54777774 19.54495249 10.4765625 21.7265625 C11.06067814 23.11685908 11.64403673 24.50747402 12.2265625 25.8984375 C12.50464752 26.54960541 12.78273254 27.20077332 13.06924438 27.87167358 C14.44974743 31.21061435 15 33.31382308 15 37 C10.80384093 38.57489237 6.60460986 40.14120605 2.40234375 41.69970703 C0.97373762 42.23089701 -0.45400834 42.76440643 -1.88085938 43.30029297 C-3.93396903 44.07092396 -5.9900449 44.83311379 -8.046875 45.59375 C-9.28276367 46.05458984 -10.51865234 46.51542969 -11.79199219 46.99023438 C-15 48 -15 48 -19 48 C-18.74025391 47.35289063 -18.48050781 46.70578125 -18.21289062 46.0390625 C-16.66280635 42.15511543 -15.1282502 38.26512568 -13.59375 34.375 C-13.10569885 33.1382251 -13.10569885 33.1382251 -12.60778809 31.87646484 C-11.57174868 29.25101997 -10.53585611 26.6255172 -9.5 24 C-8.13554892 20.54161446 -6.77094607 17.08328887 -5.40625 13.625 C-5.09473999 12.83528809 -4.78322998 12.04557617 -4.46228027 11.23193359 C-2.98345498 7.48446739 -1.50072163 3.7387705 0 0 Z " fill="#020202" transform="translate(385,21)"/>
</svg>
